<?xml version="1.0" encoding="UTF-8"?>
<svg xmlns="http://www.w3.org/2000/svg" xmlns:xlink="http://www.w3.org/1999/xlink" width="32px" height="32px" viewBox="0 0 32 32" version="1.1">
<g id="surface1">
<path style=" stroke:none;fill-rule:nonzero;fill:rgb(96.862745%,87.45098%,11.764706%);fill-opacity:1;" d="M 4.800781 0 L 27.199219 0 C 29.851562 0 32 2.148438 32 4.800781 L 32 27.199219 C 32 29.851562 29.851562 32 27.199219 32 L 4.800781 32 C 2.148438 32 0 29.851562 0 27.199219 L 0 4.800781 C 0 2.148438 2.148438 0 4.800781 0 Z M 4.800781 0 "/>
<path style=" stroke:none;fill-rule:nonzero;fill:rgb(0%,0%,0%);fill-opacity:1;" d="M 20.25 23.125 C 20.875 24.1875 21.75 24.9375 23.1875 24.9375 C 24.4375 24.9375 25.25 24.3125 25.25 23.4375 C 25.25 22.4375 24.4375 22.0625 23.0625 21.4375 L 22.3125 21.125 C 20.125 20.1875 18.6875 19.0625 18.6875 16.625 C 18.6875 14.375 20.375 12.625 23.0625 12.625 C 25 12.625 26.375 13.3125 27.3125 15.0625 L 25 16.5625 C 24.5 15.625 23.9375 15.25 23.0625 15.25 C 22.1875 15.25 21.625 15.8125 21.625 16.5625 C 21.625 17.4375 22.1875 17.8125 23.5 18.375 L 24.25 18.6875 C 26.8125 19.8125 28.25 20.875 28.25 23.4375 C 28.25 26.125 26.125 27.625 23.25 27.625 C 20.4375 27.625 18.625 26.3125 17.75 24.5625 Z M 9.625 23.375 C 10.125 24.1875 10.5 24.9375 11.5625 24.9375 C 12.5625 24.9375 13.1875 24.5625 13.1875 23.0625 L 13.1875 12.6875 L 16.1875 12.6875 L 16.1875 22.9375 C 16.1875 26.0625 14.375 27.4375 11.6875 27.4375 C 9.25 27.4375 7.875 26.1875 7.1875 24.6875 Z M 9.625 23.375 "/>
</g>
</svg>
