<?xml version="1.0" encoding="UTF-8"?>
<svg xmlns="http://www.w3.org/2000/svg" xmlns:xlink="http://www.w3.org/1999/xlink" width="90px" height="73px" viewBox="0 0 252 148" version="1.1">
<g id="surface1">
<path style=" stroke:none;fill-rule:evenodd;fill:rgb(96.862745%,54.509804%,12.156863%);fill-opacity:1;" d="M 135.480469 63.796875 C 149.464844 54.339844 160.964844 47.507812 177.078125 41.902344 C 189.132812 37.707031 203.75 34.417969 216.601562 33.6875 L 231.832031 33.007812 C 231.902344 32.113281 211.769531 26 209.738281 25.476562 C 185.359375 19.195312 155.257812 19.027344 131.265625 26.042969 C 129.652344 29.117188 126.554688 33.066406 124.601562 36.359375 C 122.359375 40.140625 120.765625 43.734375 118.875 47.648438 C 118.53125 48.355469 118.429688 48.914062 118.503906 49.390625 C 118.6875 50.582031 119.964844 51.257812 121.320312 52.476562 C 124.210938 55.070312 132.761719 62.925781 135.480469 63.796875 Z M 135.480469 63.796875 "/>
<path style=" stroke:none;fill-rule:evenodd;fill:rgb(0%,33.333333%,58.039216%);fill-opacity:1;" d="M 160.375 13.332031 C 167.265625 13.222656 173.960938 13.382812 180.800781 14.25 C 183.78125 14.625 202.210938 16.601562 215.617188 22.195312 C 216.304688 21.605469 199.304688 12.675781 197.882812 11.996094 C 191.53125 8.957031 184.308594 6.257812 177.546875 4.296875 C 171.582031 2.570312 166.65625 1.507812 160.660156 0.332031 C 157.707031 -0.25 157.601562 -0.199219 155.363281 1.589844 C 150.65625 5.347656 144.5 10.277344 140.722656 14.902344 C 147.410156 14.359375 153.558594 13.441406 160.375 13.332031 Z M 160.375 13.332031 "/>
<path style=" stroke:none;fill-rule:evenodd;fill:rgb(0%,33.333333%,58.039216%);fill-opacity:1;" d="M 161.496094 125.597656 C 160.5625 124.898438 166.507812 98.191406 140.988281 94.453125 C 133.855469 93.40625 125.476562 94.148438 119.382812 98.238281 C 114.492188 101.519531 111.046875 106.671875 109.632812 114.382812 C 109.292969 114.167969 108.445312 110.027344 108.179688 109.339844 C 103.464844 97.179688 91.457031 92.164062 78.765625 93.75 C 66.886719 95.234375 56.941406 103.566406 55.113281 115.15625 L 54.378906 120.269531 C 53.148438 119.269531 52.914062 117.890625 49.109375 115.652344 C 46.917969 114.363281 44.535156 113.390625 42.132812 112.570312 C 36.859375 110.769531 31.300781 109.96875 25.9375 108.480469 C 23.863281 107.90625 20.589844 106.902344 19.398438 104.984375 C 17.882812 102.546875 18.984375 99.46875 21.332031 98.148438 C 26.53125 95.230469 33.078125 97.355469 38.503906 98.433594 L 38.46875 85.703125 C 1.886719 79.84375 -1.886719 104.578125 5.984375 113.375 C 13.847656 122.160156 33.164062 121.550781 38.984375 126.179688 C 41.4375 128.128906 41.007812 132.0625 38.53125 133.917969 C 36.066406 135.761719 31.957031 136.011719 28.988281 135.941406 C 22.253906 135.78125 17.394531 133.695312 11.804688 130.171875 C 8.96875 128.382812 10.023438 127.566406 5.519531 132.207031 L 0 138.085938 C 0.609375 139.925781 11.335938 144.671875 13.585938 145.421875 C 25.632812 149.421875 46.875 149.710938 54.328125 137.734375 C 55.929688 135.160156 56.179688 133.273438 56.875 130.40625 C 60.230469 135.179688 60.632812 138.070312 67.976562 142.027344 C 70.671875 143.480469 73.300781 144.550781 76.3125 145.101562 C 79.953125 145.769531 83.554688 145.894531 87.035156 145.714844 L 86.917969 134.480469 C 86.019531 134.546875 82.65625 134.457031 80.878906 134.117188 C 79.128906 133.78125 77.675781 133.207031 76.140625 132.300781 C 73.207031 130.5625 71.679688 127.867188 70.882812 124.636719 L 109.488281 124.683594 L 109.636719 145.03125 L 125.972656 145.007812 L 125.980469 117.363281 C 125.980469 115.046875 126.453125 113.15625 126.9375 111.980469 C 130.972656 103.894531 141 105.003906 143.839844 111.226562 C 145.023438 113.824219 145.101562 114.929688 145.105469 117.679688 L 145.117188 144.855469 L 161.238281 144.875 L 161.417969 134.140625 L 161.734375 134.996094 C 165.152344 146.609375 184.378906 148.273438 193.765625 142.332031 L 197.617188 139.761719 L 197.691406 144.859375 C 202.304688 144.789062 208.484375 144.957031 213.269531 145.003906 L 213.390625 124.722656 C 213.53125 124.597656 215.328125 134.503906 227.183594 141.632812 C 234.355469 145.941406 243.628906 148.0625 251.953125 147.597656 L 251.953125 135.566406 C 222.476562 135.527344 224.308594 98.34375 251.953125 99.316406 L 251.953125 87.253906 C 239.660156 87.125 226.238281 90.652344 218.324219 100.777344 C 215.199219 104.777344 214.851562 106.527344 213.046875 111.15625 C 211.875 107.917969 212.289062 106.285156 210.054688 102.894531 C 208.464844 100.480469 206.632812 98.664062 204.074219 97.265625 C 197.253906 93.417969 191.863281 94.101562 184.152344 94.160156 L 184.140625 105.972656 C 187.539062 106.09375 190.660156 105.914062 193.636719 107.730469 C 196.511719 109.484375 197.730469 111.988281 197.550781 114.753906 C 197.019531 114.960938 188.007812 114.140625 186.457031 114.109375 C 182.507812 114.035156 178.996094 114.410156 175.058594 114.910156 C 168.40625 115.75 163.972656 119.167969 161.496094 125.597656 Z M 185.089844 123.519531 C 187.890625 123.238281 190.617188 123.253906 193.421875 123.417969 C 197.03125 123.628906 198.601562 122.910156 197.742188 127.375 C 196.894531 131.777344 193.144531 134.488281 188.960938 135.375 C 175.890625 138.152344 169.78125 125.058594 185.089844 123.519531 Z M 80.488281 105.21875 C 92.148438 103.253906 96.320312 115.472656 93.957031 115.703125 C 92.632812 115.835938 78.996094 115.675781 76.332031 115.675781 C 70.191406 115.675781 70.148438 116.257812 71.152344 113.394531 C 72.726562 108.902344 75.742188 106.019531 80.488281 105.21875 Z M 80.488281 105.21875 "/>
<path style=" stroke:none;fill-rule:evenodd;fill:rgb(96.470588%,74.901961%,52.54902%);fill-opacity:1;" d="M 122.476562 74.652344 C 124.578125 72.785156 126.605469 70.960938 128.75 69.136719 C 130.828125 67.371094 133.585938 65.578125 135.480469 63.796875 C 132.761719 62.925781 124.210938 55.070312 121.320312 52.476562 C 119.964844 51.257812 118.6875 50.582031 118.503906 49.394531 C 118.429688 48.917969 118.53125 48.359375 118.875 47.648438 C 120.765625 43.734375 122.359375 40.140625 124.601562 36.363281 C 126.554688 33.066406 129.652344 29.117188 131.265625 26.042969 C 123.828125 27.441406 112.917969 32.296875 105.722656 35.285156 C 106.421875 37.164062 112.046875 43.304688 113.722656 44.996094 C 116.265625 47.566406 116.816406 48.394531 117.710938 49.488281 C 113.5 60.40625 110.808594 71.070312 110.726562 86.699219 C 111.152344 86.992188 115.570312 81.410156 116.425781 80.582031 C 118.457031 78.621094 120.355469 76.53125 122.476562 74.652344 Z M 122.476562 74.652344 "/>
</g>
</svg>
